<svg version="1.1" xmlns="http://www.w3.org/2000/svg" style="display: block;" viewBox="0 0 2048 658" width="881" height="283" preserveAspectRatio="none">
<defs>
	<linearGradient id="Gradient1" gradientUnits="userSpaceOnUse" x1="200.86" y1="467.874" x2="280.827" y2="425.707">
		<stop class="stop0" offset="0" stop-opacity="1" stop-color="rgb(199,143,54)"/>
		<stop class="stop1" offset="1" stop-opacity="1" stop-color="rgb(227,184,94)"/>
	</linearGradient>
	<linearGradient id="Gradient2" gradientUnits="userSpaceOnUse" x1="173.774" y1="424.539" x2="113.318" y2="497.608">
		<stop class="stop0" offset="0" stop-opacity="1" stop-color="rgb(83,17,9)"/>
		<stop class="stop1" offset="1" stop-opacity="1" stop-color="rgb(151,40,33)"/>
	</linearGradient>
	<linearGradient id="Gradient3" gradientUnits="userSpaceOnUse" x1="245.055" y1="591.161" x2="396.335" y2="450.378">
		<stop class="stop0" offset="0" stop-opacity="1" stop-color="rgb(163,46,36)"/>
		<stop class="stop1" offset="1" stop-opacity="1" stop-color="rgb(198,65,50)"/>
	</linearGradient>
	<linearGradient id="Gradient4" gradientUnits="userSpaceOnUse" x1="132.697" y1="363.363" x2="197.928" y2="379.085">
		<stop class="stop0" offset="0" stop-opacity="1" stop-color="rgb(167,100,42)"/>
		<stop class="stop1" offset="1" stop-opacity="1" stop-color="rgb(191,121,49)"/>
	</linearGradient>
	<linearGradient id="Gradient5" gradientUnits="userSpaceOnUse" x1="77.8415" y1="326.139" x2="231.176" y2="224.312">
		<stop class="stop0" offset="0" stop-opacity="1" stop-color="rgb(224,173,115)"/>
		<stop class="stop1" offset="1" stop-opacity="1" stop-color="rgb(244,223,203)"/>
	</linearGradient>
	<linearGradient id="Gradient6" gradientUnits="userSpaceOnUse" x1="260.205" y1="143.82" x2="356.886" y2="191.04">
		<stop class="stop0" offset="0" stop-opacity="1" stop-color="rgb(84,12,8)"/>
		<stop class="stop1" offset="1" stop-opacity="1" stop-color="rgb(125,38,26)"/>
	</linearGradient>
	<linearGradient id="Gradient7" gradientUnits="userSpaceOnUse" x1="300.827" y1="145.252" x2="411.989" y2="257.93">
		<stop class="stop0" offset="0" stop-opacity="1" stop-color="rgb(117,30,24)"/>
		<stop class="stop1" offset="1" stop-opacity="1" stop-color="rgb(198,62,47)"/>
	</linearGradient>
	<linearGradient id="Gradient8" gradientUnits="userSpaceOnUse" x1="374.867" y1="243.213" x2="382.175" y2="350.374">
		<stop class="stop0" offset="0" stop-opacity="1" stop-color="rgb(191,131,50)"/>
		<stop class="stop1" offset="1" stop-opacity="1" stop-color="rgb(220,175,80)"/>
	</linearGradient>
	<linearGradient id="Gradient9" gradientUnits="userSpaceOnUse" x1="383.703" y1="288.892" x2="487.296" y2="333.712">
		<stop class="stop0" offset="0" stop-opacity="1" stop-color="rgb(93,19,15)"/>
		<stop class="stop1" offset="1" stop-opacity="1" stop-color="rgb(155,43,33)"/>
	</linearGradient>
	<linearGradient id="Gradient10" gradientUnits="userSpaceOnUse" x1="169.148" y1="272.605" x2="259.971" y2="336.645">
		<stop class="stop0" offset="0" stop-opacity="1" stop-color="rgb(149,84,33)"/>
		<stop class="stop1" offset="1" stop-opacity="1" stop-color="rgb(172,105,39)"/>
	</linearGradient>
</defs>
<path transform="translate(0,0)" fill="url(#Gradient10)" d="M 296.465 133.873 C 323.69 133.512 357.123 139.939 378.953 157.068 C 395.482 168.352 406.189 177.892 417.173 195.1 C 426.213 207.374 433.375 222.375 438.878 236.562 C 447.304 258.287 474.7 353.649 471.711 373.399 C 470.436 381.823 465.42 388.112 458.658 393.045 C 446.41 402.127 431.008 405.864 415.96 403.405 C 392.054 399.569 373.429 380.768 372.904 356.047 C 368.067 339.384 361.886 323.839 355.313 307.82 C 353.381 293.166 337.652 259.246 330.594 245.831 L 330.376 245.254 C 323.175 245.065 313.029 246.107 306.47 249.138 C 293.059 253.158 261.932 267.76 255.723 280.331 C 246.789 287.257 240.215 294.857 232.368 302.939 C 226.491 310.882 220.495 318.861 214.719 326.866 C 210.87 333.827 206.421 341.355 203.575 348.724 C 200.658 359.524 199.835 365.829 199.745 377.248 C 203.576 398.752 211.439 416.674 229.887 429.621 C 237.744 434.367 244.549 438.985 253.697 440.602 C 236.986 442.604 205.717 435.87 187.876 433.038 L 187.395 432.47 C 185.254 431.467 174.086 428.141 170.771 426.928 C 151.791 419.983 140.172 411.906 125.599 398.323 C 119.732 392.58 114.453 386.265 109.84 379.474 C 107.135 375.558 103.66 369.291 100.495 366.237 L 101.116 365.408 C 91.3524 348.649 89.9941 339.261 88.691 320.579 C 107.018 286.95 133.142 252.841 157.386 223.115 C 170.176 207.432 176.358 196.69 191.824 182.994 L 194.498 179.362 C 196.379 177.412 198.277 175.478 200.191 173.561 C 223.805 149.938 262.871 133.889 296.465 133.873 z"/>
<path transform="translate(0,0)" fill="url(#Gradient9)" d="M 417.173 195.1 C 426.213 207.374 433.375 222.375 438.878 236.562 C 447.304 258.287 474.7 353.649 471.711 373.399 C 470.436 381.823 465.42 388.112 458.658 393.045 C 446.41 402.127 431.008 405.864 415.96 403.405 C 392.054 399.569 373.429 380.768 372.904 356.047 C 368.067 339.384 361.886 323.839 355.313 307.82 C 353.381 293.166 337.652 259.246 330.594 245.831 C 340.758 242.317 380.24 248.134 391.805 250.347 C 394.058 250.778 406.062 252.848 407.459 252.729 C 411.908 253.686 416.184 254.629 420.685 255.331 C 422.154 241.925 423.281 229.798 419.991 216.562 C 420.331 210.214 415.221 201.012 417.173 195.1 z"/>
<path transform="translate(0,0)" fill="url(#Gradient8)" d="M 330.594 245.831 C 340.758 242.317 380.24 248.134 391.805 250.347 C 394.058 250.778 406.062 252.848 407.459 252.729 C 411.908 253.686 416.184 254.629 420.685 255.331 C 411.775 295.799 400.104 323.436 372.904 356.047 C 368.067 339.384 361.886 323.839 355.313 307.82 C 353.381 293.166 337.652 259.246 330.594 245.831 z"/>
<path transform="translate(0,0)" fill="url(#Gradient7)" d="M 296.465 133.873 C 323.69 133.512 357.123 139.939 378.953 157.068 C 395.482 168.352 406.189 177.892 417.173 195.1 C 415.221 201.012 420.331 210.214 419.991 216.562 C 423.281 229.798 422.154 241.925 420.685 255.331 C 416.184 254.629 411.908 253.686 407.459 252.729 C 406.062 252.848 394.058 250.778 391.805 250.347 C 380.24 248.134 340.758 242.317 330.594 245.831 L 330.376 245.254 C 316.994 226.022 301.712 210.561 282.159 197.708 C 265.655 189.444 259.002 186.787 240.885 181.245 L 240.129 181.257 C 226.3 176.543 208.87 176.778 194.498 179.362 C 196.379 177.412 198.277 175.478 200.191 173.561 C 223.805 149.938 262.871 133.889 296.465 133.873 z"/>
<path transform="translate(0,0)" fill="url(#Gradient6)" d="M 296.465 133.873 C 323.69 133.512 357.123 139.939 378.953 157.068 C 364.041 161.443 351.432 152.119 337.499 147.909 C 291.092 133.884 281.763 158.941 282.159 197.708 C 265.655 189.444 259.002 186.787 240.885 181.245 L 240.129 181.257 C 226.3 176.543 208.87 176.778 194.498 179.362 C 196.379 177.412 198.277 175.478 200.191 173.561 C 223.805 149.938 262.871 133.889 296.465 133.873 z"/>
<path transform="translate(0,0)" fill="rgb(156,42,32)" d="M 194.498 179.362 C 196.379 177.412 198.277 175.478 200.191 173.561 C 223.805 149.938 262.871 133.889 296.465 133.873 C 272.281 146.448 253.453 153.813 240.885 181.245 L 240.129 181.257 C 226.3 176.543 208.87 176.778 194.498 179.362 z"/>
<path transform="translate(0,0)" fill="rgb(156,42,32)" d="M 419.991 216.562 C 423.281 229.798 422.154 241.925 420.685 255.331 C 416.184 254.629 411.908 253.686 407.459 252.729 C 413.581 250.321 414.431 254.241 419.482 251.708 C 419.601 248.603 420.17 245.461 418.226 243.156 C 414.75 241.857 411.607 244.265 407.175 244.748 L 406.483 243.439 C 413.96 229.193 419.08 240.7 419.991 216.562 z"/>
<path transform="translate(0,0)" fill="url(#Gradient5)" d="M 194.498 179.362 C 208.87 176.778 226.3 176.543 240.129 181.257 C 234.742 197.232 230.926 210.006 226.988 226.559 C 224.524 241.295 222.186 256.238 219.929 270.796 C 218.069 282.797 216.089 302.013 204.86 308.415 C 169.231 328.729 135.733 342.356 101.116 365.408 C 91.3524 348.649 89.9941 339.261 88.691 320.579 C 107.018 286.95 133.142 252.841 157.386 223.115 C 170.176 207.432 176.358 196.69 191.824 182.994 L 194.498 179.362 z"/>
<path transform="translate(0,0)" fill="rgb(244,220,195)" d="M 194.498 179.362 C 208.87 176.778 226.3 176.543 240.129 181.257 C 234.742 197.232 230.926 210.006 226.988 226.559 C 226.906 224.743 226.807 219.623 226.176 218.344 C 219.259 204.311 199.707 200.338 190.675 189.573 C 189.472 188.141 191.059 185.153 191.824 182.994 L 194.498 179.362 z"/>
<path transform="translate(0,0)" fill="url(#Gradient4)" d="M 125.599 398.323 C 124.241 384.439 131.425 368.753 143.736 361.722 C 158.283 353.414 174.243 347.206 189.128 339.403 C 195.182 336.23 207.329 326.672 213.381 325.522 L 214.719 326.866 C 210.87 333.827 206.421 341.355 203.575 348.724 C 200.658 359.524 199.835 365.829 199.745 377.248 C 203.576 398.752 211.439 416.674 229.887 429.621 C 237.744 434.367 244.549 438.985 253.697 440.602 C 236.986 442.604 205.717 435.87 187.876 433.038 L 187.395 432.47 C 185.254 431.467 174.086 428.141 170.771 426.928 C 151.791 419.983 140.172 411.906 125.599 398.323 z"/>
<path transform="translate(0,0)" fill="rgb(98,17,9)" d="M 187.395 432.47 C 184.937 415.128 184.436 397.537 188.731 380.467 C 190.839 372.087 196.499 353.038 203.575 348.724 C 200.658 359.524 199.835 365.829 199.745 377.248 C 203.576 398.752 211.439 416.674 229.887 429.621 C 237.744 434.367 244.549 438.985 253.697 440.602 C 236.986 442.604 205.717 435.87 187.876 433.038 L 187.395 432.47 z"/>
<path transform="translate(0,0)" fill="rgb(156,42,32)" d="M 197.297 424.185 C 195.699 417.277 192.542 380.523 199.745 377.248 C 203.576 398.752 211.439 416.674 229.887 429.621 C 225.54 431.9 202.932 425.597 197.297 424.185 z"/>
<path transform="translate(0,0)" fill="rgb(177,113,46)" d="M 232.368 302.939 C 230.181 298.475 235.3 275.031 236.657 269.287 C 240.15 254.685 241.226 211.386 264.658 215.864 C 280.785 218.946 297.477 236.442 306.47 249.138 C 293.059 253.158 261.932 267.76 255.723 280.331 C 246.789 287.257 240.215 294.857 232.368 302.939 z"/>
<path transform="translate(0,0)" fill="rgb(30,30,30)" d="M 801.362 229.139 C 828.505 229.067 899.81 225.914 921.424 235.576 C 936.704 242.473 948.601 255.183 954.474 270.885 C 960.939 287.939 961.402 314.952 953.386 331.427 C 944.381 349.936 934.516 357.319 916.34 364.23 C 930.378 386.023 948.734 414.044 965.458 433.538 C 967.827 428.597 969.961 423.382 971.86 418.228 C 992.369 362.554 1013.4 307.158 1034.78 251.811 C 1037.74 244.14 1040.19 236.451 1043.95 229.124 C 1056.65 229.065 1069.36 229.122 1082.06 229.297 C 1088.05 239.915 1093.95 257.855 1098.33 269.576 C 1120.37 328.616 1144.63 388.049 1166.2 447.126 C 1151.38 446.589 1133.56 447.049 1118.51 447.05 C 1114.11 431.415 1102.9 404.028 1096.96 387.718 C 1087.1 360.952 1076.07 334.634 1066.84 307.621 C 1065.44 303.531 1063.9 299.707 1061.98 295.826 C 1053.45 329.83 1038.18 362.275 1026.77 395.378 C 1020.87 412.482 1013.02 429.852 1008.2 447.246 L 920.354 446.971 C 903.484 422.096 884.542 397.043 867.253 372.185 C 866.747 358.77 867.048 342.862 866.999 329.283 C 880.784 329.242 895.752 329.382 906.316 319.442 C 917.257 309.089 916.591 289.516 905.943 279.128 C 894.562 268.026 873.941 271.351 859.417 270.843 C 855.403 270.703 850.932 270.914 846.892 270.955 C 847.879 328.575 847.133 389.512 846.859 447.309 C 833.176 446.556 814.887 447.004 801.177 447.325 C 802.129 422.949 801.84 396.165 801.576 371.66 C 801.073 325.042 803.392 275.524 801.362 229.139 z"/>
<path transform="translate(0,0)" fill="url(#Gradient3)" d="M 69.9945 417.888 C 63.6902 385.941 71.4748 348.128 88.691 320.579 C 89.9941 339.261 91.3524 348.649 101.116 365.408 L 100.495 366.237 C 103.66 369.291 107.135 375.558 109.84 379.474 C 114.453 386.265 119.732 392.58 125.599 398.323 C 140.172 411.906 151.791 419.983 170.771 426.928 C 174.086 428.141 185.254 431.467 187.395 432.47 L 187.876 433.038 C 205.717 435.87 236.986 442.604 253.697 440.602 C 262.177 442.525 284.175 442.751 294.145 443.213 C 301.682 442.124 305.176 442.154 312.792 442.901 L 313.521 442.912 C 321.33 441.375 342.786 442.083 351.603 442.082 C 393.356 442.077 440.052 446.749 480.961 435.792 C 482.355 474.316 478.939 507.096 440.322 526.86 C 414.699 540.112 358.189 536.833 327.827 537.521 C 302.892 538.085 267.351 540.77 243.135 539.006 C 205.616 539.601 181.804 536.033 146.931 522.367 C 103.895 501.368 76.8703 465.4 69.9945 417.888 z"/>
<path transform="translate(0,0)" fill="url(#Gradient2)" d="M 69.9945 417.888 C 63.6902 385.941 71.4748 348.128 88.691 320.579 C 89.9941 339.261 91.3524 348.649 101.116 365.408 L 100.495 366.237 C 103.66 369.291 107.135 375.558 109.84 379.474 C 114.453 386.265 119.732 392.58 125.599 398.323 C 140.172 411.906 151.791 419.983 170.771 426.928 C 174.086 428.141 185.254 431.467 187.395 432.47 L 187.876 433.038 C 194.576 452.33 203.278 477.507 213.429 495.002 C 216.68 501.363 221.146 509.521 223.694 516.023 C 221.913 517.312 220.378 518.648 218.244 519.127 C 212.774 522.074 192.17 529.259 190.89 530.306 C 190.985 533.22 190.543 532.266 192.393 534.322 C 204.433 535.473 233.1 536.733 243.135 539.006 C 205.616 539.601 181.804 536.033 146.931 522.367 C 103.895 501.368 76.8703 465.4 69.9945 417.888 z"/>
<path transform="translate(0,0)" fill="rgb(156,42,32)" d="M 69.9945 417.888 C 63.6902 385.941 71.4748 348.128 88.691 320.579 C 89.9941 339.261 91.3524 348.649 101.116 365.408 L 100.495 366.237 C 88.0516 379.646 80.2445 395.37 74.0845 412.424 C 73.2336 414.78 72.6658 417.316 69.9945 417.888 z"/>
<path transform="translate(0,0)" fill="rgb(98,17,9)" d="M 146.931 522.367 C 152.942 519.297 172.533 518.474 180.185 516.577 C 188.255 514.576 187.807 510.979 196.812 511.263 L 197.428 512.059 C 188.115 517.885 157.827 520.885 155.242 523.629 C 157.489 524.518 167.269 528.454 168.968 528.592 C 184.829 529.882 202.942 521.211 216.835 517.936 L 218.244 519.127 C 212.774 522.074 192.17 529.259 190.89 530.306 C 190.985 533.22 190.543 532.266 192.393 534.322 C 204.433 535.473 233.1 536.733 243.135 539.006 C 205.616 539.601 181.804 536.033 146.931 522.367 z"/>
<path transform="translate(0,0)" fill="rgb(156,42,32)" d="M 313.521 442.912 C 321.33 441.375 342.786 442.083 351.603 442.082 C 393.356 442.077 440.052 446.749 480.961 435.792 C 482.355 474.316 478.939 507.096 440.322 526.86 C 443.821 515.72 443.161 510.224 442.549 498.799 C 425.919 474.665 403.94 473.313 378.949 464.47 C 370.496 461.479 317.648 447.014 313.521 442.912 z"/>
<path transform="translate(0,0)" fill="url(#Gradient1)" d="M 187.876 433.038 C 205.717 435.87 236.986 442.604 253.697 440.602 C 262.177 442.525 284.175 442.751 294.145 443.213 L 294.751 444.877 C 286.43 456.888 239.72 492.216 223.07 494.535 C 220.667 494.869 216.057 495.019 213.429 495.002 C 203.278 477.507 194.576 452.33 187.876 433.038 z"/>
<path transform="translate(0,0)" fill="rgb(177,113,46)" d="M 294.145 443.213 C 301.682 442.124 305.176 442.154 312.792 442.901 C 300.622 463.231 245.604 509.121 223.694 516.023 C 221.146 509.521 216.68 501.363 213.429 495.002 C 216.057 495.019 220.667 494.869 223.07 494.535 C 239.72 492.216 286.43 456.888 294.751 444.877 L 294.145 443.213 z"/>
<path transform="translate(0,0)" fill="rgb(30,30,30)" d="M 1870.86 227.461 C 1931.78 221.248 1986.22 265.563 1992.49 326.479 C 1998.77 387.395 1954.51 441.878 1893.6 448.214 C 1832.6 454.56 1778.02 410.222 1771.74 349.219 C 1765.45 288.216 1809.85 233.683 1870.86 227.461 z M 1889.52 403.936 C 1926.04 399.758 1952.2 366.665 1947.83 330.162 C 1943.46 293.658 1910.23 267.676 1873.75 272.24 C 1837.54 276.769 1811.79 309.699 1816.13 345.931 C 1820.47 382.162 1853.26 408.083 1889.52 403.936 z"/>
<path transform="translate(0,0)" fill="rgb(30,30,30)" d="M 674.521 228.359 C 718.683 222.757 750.034 240.944 778.603 272.766 C 766.636 279.95 753.661 292.359 740.956 298.589 C 718.491 275.115 693.79 263.548 661.96 276.313 C 606.658 298.493 607.848 377.498 661.518 399.647 C 677.508 406.359 695.52 406.389 711.531 399.729 C 730.09 391.977 742.151 378.729 749.634 360.452 C 728.737 360.769 707.839 360.028 686.994 360.706 C 686.897 354.047 685.788 318.85 688.058 315.662 C 723.524 314.488 762.322 315.332 798.177 315.135 C 798.452 350.444 797.984 375.483 775.777 406.182 C 760.78 426.913 727.935 444.354 702.341 447.507 C 671.258 451.369 639.927 442.567 615.404 423.081 C 583.992 398.305 572.408 361.326 576.81 322.812 C 582.823 270.192 623.373 234.363 674.521 228.359 z"/>
<path transform="translate(0,0)" fill="rgb(30,30,30)" d="M 1669.51 227.323 C 1682.72 225.358 1700.92 228.142 1713.85 231.316 C 1738.9 237.468 1758.93 255.797 1774.01 275.996 C 1761.77 284.123 1749.44 292.13 1737.04 300.016 C 1735.1 297.944 1733.14 295.895 1731.16 293.87 C 1702.77 264.961 1661.44 261.611 1631.93 290.833 C 1619.39 303.199 1612.36 320.102 1612.44 337.715 C 1612.4 355.543 1619.94 372.149 1632.49 384.664 C 1645.29 397.493 1662.71 404.63 1680.83 404.465 C 1702.86 404.248 1717.23 395.573 1731.98 380.537 C 1733.61 378.357 1734.54 376.638 1737.07 375.768 C 1741.24 377.113 1767.65 395.733 1773.66 399.707 C 1773.4 400.137 1773.12 400.559 1772.84 400.973 C 1755.47 425.425 1729.03 441.906 1699.43 446.737 C 1668.95 451.725 1637.73 444.525 1612.51 426.692 C 1590.21 410.667 1573.22 382.138 1568.92 355.039 C 1564.31 325.808 1571.64 295.951 1589.25 272.171 C 1611.94 241.067 1633.11 232.991 1669.51 227.323 z"/>
<path transform="translate(0,0)" fill="rgb(30,30,30)" d="M 1173.19 320.234 C 1219.75 318.863 1271.72 319.991 1318.7 319.976 C 1318.54 334.121 1318.5 348.267 1318.57 362.413 C 1290.06 362.098 1261.24 362.332 1232.71 362.353 C 1228.03 362.549 1222.55 362.404 1217.8 362.396 C 1217.49 390.552 1218.29 419.183 1217.57 447.212 C 1202.84 446.959 1188.12 446.913 1173.39 447.073 C 1172.5 405.761 1173.19 361.766 1173.19 320.234 z"/>
<path transform="translate(0,0)" fill="rgb(30,30,30)" d="M 1335.88 320.272 C 1382.34 318.91 1434.01 320.02 1480.88 320.014 L 1480.98 362.64 C 1459.5 361.074 1417.66 362.297 1394.75 362.306 L 1381.1 362.262 C 1381.38 390.583 1381.42 418.906 1381.23 447.227 C 1366.1 446.935 1350.96 446.928 1335.83 447.205 L 1335.88 320.272 z"/>
<path transform="translate(0,0)" fill="rgb(30,30,30)" d="M 1541.55 230.098 C 1543.56 229.82 1542.73 229.711 1544.71 230.739 C 1545.71 235.442 1545.15 281.764 1545.16 288.842 L 1545.18 447.216 C 1532.14 446.747 1517.88 447.012 1504.75 447.003 C 1502.43 447.03 1503.33 447.306 1501.4 445.893 C 1500.35 441.564 1500.92 399.827 1500.91 392.34 L 1500.79 242.62 C 1513.15 237.714 1528.69 233.525 1541.55 230.098 z"/>
<path transform="translate(0,0)" fill="rgb(30,30,30)" d="M 1173.18 229.153 L 1318.6 229.049 L 1318.52 270.492 C 1311.47 272.69 1189.08 270.989 1173.31 271.075 C 1172.66 258.298 1173.15 242.17 1173.18 229.153 z"/>
<path transform="translate(0,0)" fill="rgb(30,30,30)" d="M 1335.84 229.19 C 1383.9 228.663 1432.75 229.08 1480.87 229.078 C 1481.36 242.116 1481.04 257.807 1481.08 271.036 C 1434.47 269.97 1382.85 270.729 1336.01 271.058 C 1335.62 257.652 1335.87 242.709 1335.84 229.19 z"/>
<path transform="translate(0,0)" fill="rgb(210,160,54)" d="M 1071.86 392.558 C 1081.18 392.039 1088.54 392.296 1097.89 392.657 C 1093.66 402.358 1071.05 437.041 1063.94 445.374 C 1061.3 444.713 1061.81 444.382 1059.78 441.554 C 1054.15 430.289 1036.51 406.916 1028.38 392.99 C 1041.99 392.063 1057.69 393.075 1071.86 392.558 z"/>
<path transform="translate(0,0)" fill="rgb(98,17,9)" d="M 330.376 245.254 L 330.594 245.831 C 337.652 259.246 353.381 293.166 355.313 307.82 C 351.491 300.777 345.867 295.301 340.754 289.028 C 324.419 276.545 315.568 271.89 294.876 269.731 C 278.267 271.74 271.405 273.123 255.723 280.331 C 261.932 267.76 293.059 253.158 306.47 249.138 C 313.029 246.107 323.175 245.065 330.376 245.254 z"/>
<path transform="translate(0,0)" fill="rgb(156,42,32)" d="M 294.876 269.731 C 300.656 264.685 317.443 259.689 325.136 258.235 C 329.035 264.271 339.084 282.315 340.754 289.028 C 324.419 276.545 315.568 271.89 294.876 269.731 z"/>
</svg>