<svg version="1.1" xmlns="http://www.w3.org/2000/svg" style="display: block;" viewBox="0 0 2048 681" width="866" height="288" preserveAspectRatio="none">
<path transform="translate(0,0)" fill="rgb(230,214,193)" d="M 596.86 472.826 C 605.608 453.301 618.015 417.503 625.923 396.512 L 677.991 259.721 C 682.143 248.843 698.199 204.462 702.765 198.358 C 708.909 195.102 744.6 196.233 753.43 196.614 C 759.439 206.811 766.079 227.966 770.822 239.996 C 777.904 257.958 784.974 276.275 791.801 294.333 L 866.374 489.51 C 850.254 490.508 821.197 489.689 803.823 489.797 C 798.727 482.682 778.389 423.873 773.968 412.033 L 747.863 341.358 C 741.525 324.369 733.743 304.87 728.59 287.714 C 720.744 306.717 712.216 331.651 705.075 351.243 L 672.442 440.1 C 666.562 456.385 660.956 473.787 654.459 489.735 C 628.715 489.504 602.97 489.458 577.226 489.598 C 566.474 489.61 546.924 490.326 537.247 488.816 C 536.563 488.19 535.898 487.543 535.253 486.876 C 526.922 478.298 469.362 395.142 467.383 387.909 C 463.497 373.706 466.164 347.626 466.436 332.032 C 483.786 331.88 503.794 331.591 517.251 319.134 C 531.442 305.901 531.862 277.65 518.133 264.067 C 504.956 251.031 481.252 253.27 464.218 253.133 C 455.673 253.065 446.826 253.247 438.206 253.303 C 439.163 303 438.021 357.04 438.034 407.12 L 438.154 454.35 C 438.241 464.777 438.908 478.324 437.459 488.299 C 434.589 490.588 385.186 489.817 377.9 489.884 L 377.702 280.942 L 377.833 219.966 C 377.887 213.602 377.851 206.186 378.224 199.782 C 378.344 197.728 380.225 197.1 381.755 196.289 C 417.393 197.249 502.872 191.77 532.493 203.164 C 554.874 211.772 571.76 227.822 581.463 249.775 C 591.725 272.991 592.441 306.195 583.313 329.677 C 573.545 354.805 554.938 368.861 531.072 379.282 C 538.442 388.068 550.624 406.389 557.759 416.543 C 570.498 434.672 585.015 454.327 596.86 472.826 z"/>
<path transform="translate(0,0)" fill="rgb(230,214,193)" d="M 1820.26 193.806 C 1902.25 191.04 1971.05 255.082 1974.15 337.06 C 1977.25 419.038 1913.5 488.098 1831.53 491.54 C 1749.09 495.002 1679.54 430.791 1676.41 348.333 C 1673.29 265.876 1737.79 196.588 1820.26 193.806 z M 1832.49 431.215 C 1881.46 427.182 1917.83 384.141 1913.64 335.19 C 1909.45 286.239 1866.3 250.003 1817.36 254.346 C 1768.64 258.671 1732.6 301.592 1736.77 350.324 C 1740.94 399.056 1783.75 435.231 1832.49 431.215 z"/>
<path transform="translate(0,0)" fill="rgb(230,214,193)" d="M 214.799 194.413 C 248.462 191.268 287.849 202.828 314.696 223.925 C 322.769 230.269 340.719 244.718 342.808 254.353 C 340.609 263.403 308.581 280.328 298.265 291.035 C 285.947 277.295 275.68 267.763 258.189 260.401 C 236.856 251.565 212.908 251.452 191.492 260.085 C 169.089 269.098 151.251 286.743 141.994 309.047 C 105.776 395.813 212.434 470.328 282.774 410.476 C 295.696 399.481 302.643 387.948 308.92 372.499 C 281.441 373.092 251.812 372.76 224.309 372.512 C 223.898 356.173 223.908 329.751 224.728 313.588 C 230.083 313.112 237.156 313.206 242.652 313.124 C 286.222 313.596 330.664 313.236 374.279 312.999 C 373.929 364.238 373.472 399.159 338.165 440.012 C 283.913 502.787 187.74 509.07 125.625 454.364 C 95.0335 427.527 76.5793 389.47 74.4504 348.83 C 73.7186 336.906 75.529 325.54 77.7551 313.886 C 90.443 247.468 147.417 198.337 214.799 194.413 z"/>
<path transform="translate(0,0)" fill="rgb(230,214,193)" d="M 1540.57 193.322 C 1550.86 190.814 1575.62 193.576 1586.64 195.983 C 1624.83 204.061 1658.27 226.963 1679.6 259.664 C 1670.54 266.897 1641.07 285.734 1630.56 292.479 C 1624.55 287.122 1619.47 279.395 1612.46 273.674 C 1592.12 257.071 1571.02 251.468 1545.31 253.431 C 1522.48 255.294 1501.32 266.153 1486.5 283.619 C 1453.19 322.783 1457.78 377.853 1496.81 411.206 C 1513.36 425.354 1539.91 433.958 1561.68 431.879 C 1586.35 429.712 1609.12 417.717 1624.86 398.592 C 1627.48 395.644 1629.95 392.291 1634.16 395.308 C 1641.52 400.575 1675.28 420.105 1677.57 426.628 C 1676.81 429.57 1675.57 431.797 1673.71 434.164 C 1623.05 498.55 1529.96 510.527 1464.31 461.862 C 1432.31 437.997 1411.09 402.395 1405.34 362.889 C 1395.6 296.376 1434.65 229.046 1496.7 204.196 C 1511.54 198.249 1524.81 195.604 1540.57 193.322 z"/>
<path transform="translate(0,0)" fill="rgb(230,214,193)" d="M 1054.53 319.541 C 1059.46 319.282 1065.08 319.416 1070.07 319.423 C 1070.84 336.635 1071.08 358.77 1070.26 375.889 C 1060.92 376.957 1042.23 375.911 1031.89 376.042 C 1000.52 376.439 967.67 374.931 936.467 376.756 C 935.491 413.898 937.36 452.729 935.899 489.497 C 921.389 490.009 904.423 489.601 889.75 489.575 L 874.892 489.754 C 875.047 483.126 875.135 476.43 875.065 469.801 C 874.541 419.877 875.938 369.657 874.98 319.767 C 894.769 319.17 917.146 319.656 937.102 319.654 L 1054.53 319.541 z"/>
<path transform="translate(0,0)" fill="rgb(230,214,193)" d="M 1274.63 319.518 L 1289.18 319.393 C 1289.19 329.444 1290.26 367.224 1288.07 374.385 C 1284.57 376.876 1274.85 376.149 1270.41 376.222 C 1232.43 376.842 1192.08 374.468 1154.27 376.926 L 1154.15 489.714 C 1140.33 490.07 1124.42 489.559 1110.25 489.688 L 1094.35 489.964 C 1093.56 463.65 1094.2 435.427 1094.11 408.921 C 1094.02 379.615 1093.67 348.974 1095.01 319.821 C 1153.7 318.568 1215.61 319.717 1274.63 319.518 z"/>
<path transform="translate(0,0)" fill="rgb(230,214,193)" d="M 1372.15 197.138 C 1373.57 197.238 1373.08 197.147 1374.37 198.283 C 1376.22 225.294 1374.83 270.595 1374.82 298.702 L 1374.91 489.524 C 1356.57 489.908 1337.3 489.664 1318.9 489.553 C 1317.75 489.642 1316.17 489.085 1315.01 488.764 C 1313.74 486.588 1313.29 235.878 1314.67 216.416 C 1323.41 210.9 1360.76 200.124 1372.15 197.138 z"/>
<path transform="translate(0,0)" fill="rgb(230,214,193)" d="M 878.9 196.342 C 941.844 197.389 1006.9 196.573 1070.01 196.502 C 1070.52 213.346 1071 231.67 1070.26 248.533 C 1070.13 251.581 1069.89 251.827 1068.06 253.269 C 1006.92 255.284 936.308 250.339 875.795 253.668 C 875.123 246.148 873.825 201.973 876.164 197.253 L 878.9 196.342 z"/>
<path transform="translate(0,0)" fill="rgb(230,214,193)" d="M 1111.71 196.476 L 1207.61 196.552 C 1234.37 196.576 1262.66 197.024 1289.25 196.151 C 1289.57 214.682 1289.14 234.283 1288.95 252.88 L 1277.25 253.241 C 1216.74 252.263 1154.93 253.581 1094.2 253.032 C 1094.2 233.513 1094.23 216.31 1095.05 196.778 L 1111.71 196.476 z"/>
<path transform="translate(0,0)" fill="rgb(212,174,57)" d="M 755.852 416.492 C 759.237 416.361 769.504 417.595 773.364 417.969 C 765.635 438.35 740.468 469.161 729.892 490.258 C 725.176 485.517 720.172 477.222 716.394 471.451 C 706.499 453.535 693.53 438.401 682.628 417.234 C 706.168 416.175 732.073 416.67 755.852 416.492 z"/>
</svg>